<svg width="30" height="30" viewBox="0 0 30 30" fill="none" xmlns="http://www.w3.org/2000/svg">
<path d="M27 9.13095C26.2274 9.49272 25.397 9.73636 24.5255 9.84619C25.4154 9.28415 26.0987 8.39356 26.4199 7.33224C25.5877 7.85275 24.6655 8.23113 23.6838 8.43509C22.8989 7.55189 21.778 7 20.539 7C17.7574 7 15.7134 9.73728 16.3416 12.5789C12.762 12.3897 9.5875 10.5808 7.46212 7.83152C6.33337 9.87387 6.87675 12.5456 8.79475 13.8986C8.0895 13.8746 7.4245 13.6706 6.84438 13.3301C6.79713 15.4352 8.22775 17.4046 10.2997 17.843C9.69337 18.0165 9.02925 18.0571 8.35375 17.9205C8.9015 19.7257 10.4922 21.039 12.3787 21.0759C10.5675 22.5737 8.2855 23.2428 6 22.9586C7.90663 24.2478 10.172 25 12.6045 25C20.6038 25 25.1231 17.8744 24.8501 11.4834C25.6919 10.842 26.4225 10.0418 27 9.13095Z" fill="white"/>
</svg>
