<svg width="23" height="16" viewBox="0 0 23 16" fill="none" xmlns="http://www.w3.org/2000/svg">
<path fill-rule="evenodd" clip-rule="evenodd" d="M20.4859 0.477677C21.4755 0.740516 22.2549 1.51497 22.5194 2.49845C23 4.2809 23 8 23 8C23 8 23 11.719 22.5194 13.5015C22.2549 14.485 21.4755 15.2595 20.4859 15.5225C18.6923 16 11.5 16 11.5 16C11.5 16 4.30766 16 2.51406 15.5225C1.52453 15.2595 0.745148 14.485 0.480648 13.5015C0 11.719 0 8 0 8C0 8 0 4.2809 0.480648 2.49845C0.745148 1.51497 1.52453 0.740516 2.51406 0.477677C4.30766 0 11.5 0 11.5 0C11.5 0 18.6923 0 20.4859 0.477677ZM15 8.00015L9 4V12L15 8.00015Z" fill="white"/>
</svg>
