<svg width="12" height="11" viewBox="0 0 12 11" fill="none" xmlns="http://www.w3.org/2000/svg">
<path d="M2.13199 0.948526L2.13199 0.948599L2.14055 0.948514L10.4878 0.865336L10.4878 0.865421L10.497 0.865161C10.5753 0.862942 10.6374 0.924199 10.6352 1.00398L10.6352 1.00398L10.6351 1.01256L10.5515 9.35943L10.5514 9.35942L10.5515 9.3686C10.5522 9.4498 10.4795 9.53559 10.3743 9.53664L10.3737 9.53665C10.3006 9.53746 10.2228 9.47338 10.2205 9.37727L10.2942 2.64035L10.3076 1.41438L9.4407 2.28132L1.63187 10.0901C1.56487 10.1572 1.46216 10.1545 1.40053 10.0928C1.34558 10.0379 1.33597 9.94158 1.40984 9.86732C1.4099 9.86727 1.40995 9.86721 1.41 9.86716L9.21827 2.05889L10.0841 1.1931L8.85971 1.20537L2.11059 1.27296L2.11001 1.27296C2.03145 1.27384 1.96256 1.20582 1.96336 1.12573C1.96442 1.02079 2.04959 0.947935 2.13199 0.948526Z" fill="#221C34" stroke="#221C34"/>
</svg>
