<svg width="176" height="37" viewBox="0 0 176 37" fill="none" xmlns="http://www.w3.org/2000/svg">
<path fill-rule="evenodd" clip-rule="evenodd" d="M86.4758 32.3673C91.8337 32.3673 95.011 30.4707 97.8769 27.3926L93.983 23.4749C91.8025 25.4648 89.84 26.7396 86.6627 26.7396C81.8967 26.7396 78.5947 22.7598 78.5947 18.0026V17.9094C78.5947 13.1522 81.959 9.26567 86.6627 9.26567C89.4351 9.26567 91.6468 10.4472 93.765 12.406L97.6588 7.9287C95.0733 5.37912 91.9271 3.63794 86.6938 3.63794C78.1586 3.63794 72.1777 10.1052 72.1777 18.0026V18.0959C72.2089 26.0556 78.2832 32.3673 86.4758 32.3673ZM104.636 31.8699H98.4062L110.337 3.88668H115.975L127.906 31.8699H121.52L118.966 25.6514H107.191L104.636 31.8699ZM136.348 31.8699H130.211V4.07323H141.581C148.216 4.07323 152.234 7.99088 152.234 13.6808V13.7741C152.234 20.2102 147.219 23.5371 140.989 23.5371H136.348V31.8699ZM154.787 31.8699H175.969V26.4287H160.861V20.5833H173.976V15.1421H160.861V9.51441H175.783V4.07323H154.787V31.8699ZM136.348 18.0959V9.60769H141.083C144.135 9.60769 146.067 11.069 146.067 13.8052V13.8984C146.067 16.2926 144.291 18.0959 141.207 18.0959H136.348ZM109.371 20.2413L113.078 11.2245L116.785 20.2413H109.371ZM70.0898 23.6615C70.0898 29.1648 65.8845 32.2741 59.8724 32.2741C55.6671 32.2741 51.3995 30.8127 48.0664 27.8279L51.6487 23.506C54.1719 25.5581 56.7885 26.864 59.9659 26.864C62.4579 26.864 63.9843 25.869 63.9843 24.2522V24.1589C63.9843 22.6043 63.0186 21.7959 58.3772 20.6144C52.7701 19.1842 49.1567 17.6295 49.1567 12.1262V12.0329C49.1567 6.99592 53.2062 3.66903 58.9068 3.66903C62.9563 3.66903 66.414 4.94382 69.2487 7.21357L66.0714 11.8153C63.6105 10.1052 61.1807 9.07912 58.8445 9.07912C56.5082 9.07912 55.2622 10.1674 55.2622 11.5043V11.5976C55.2622 13.401 56.477 13.9917 61.2742 15.2354C66.9124 16.6968 70.0898 18.7178 70.0898 23.5682V23.6615Z" fill="#221C34"/>
<path d="M35.481 11.2865C34.5465 10.6646 33.3627 10.1671 31.9921 9.76294C31.4314 13.7428 29.4066 18.7797 26.0735 23.6613C24.3914 26.1176 22.5847 28.294 20.7468 30.0974C17.6318 33.1445 14.4544 35.1655 11.8066 35.7251C16.4169 37.5285 21.4633 37.373 25.8555 35.4764C26.6343 35.1344 27.413 34.7302 28.1606 34.2949C29.1886 33.673 30.1854 32.9268 31.0888 32.0562C32.0856 31.1234 32.9889 30.0663 33.7989 28.8848C37.4746 23.5058 37.8796 16.8831 35.481 11.2865Z" fill="#A7A7A9"/>
<path d="M35.4182 11.1933C35.2935 10.9445 35.2001 10.6647 35.0755 10.416C35.0755 10.3849 35.0443 10.3538 35.0443 10.3227C35.0132 10.2916 35.0132 10.2605 34.982 10.1983C34.1721 8.64371 33.1753 7.21346 31.9916 5.96976C27.8174 1.52354 21.5562 -0.777299 15.1081 0.435306C8.62877 1.64791 3.5824 6.06304 1.30842 11.753C1.12152 12.2504 0.934613 12.779 0.778861 13.2765C0.342754 14.7689 0.0935509 16.2924 0.03125 17.816C0.654259 16.9143 1.55762 16.0437 2.67904 15.2042C5.88753 12.779 10.9339 10.6958 16.8213 9.60757C22.6776 8.51934 28.0978 8.6748 31.9916 9.76304C33.3622 10.1672 34.5459 10.6647 35.4805 11.2866C35.4493 11.2555 35.4493 11.2244 35.4182 11.1933Z" fill="#009ABF"/>
<path d="M13.3637 26.0866C8.41082 22.7286 4.67277 18.7488 2.67914 15.2354C1.55772 16.0748 0.65436 16.9454 0.0313507 17.8471C-0.186702 23.9723 2.61684 30.0664 8.06816 33.7975C9.25188 34.6059 10.4979 35.2589 11.7751 35.7564C14.3917 35.1967 17.569 33.2068 20.7152 30.1286C18.3167 29.1337 15.8246 27.7656 13.3637 26.0866Z" fill="#221C34"/>
</svg>
