<svg viewBox="0 0 176 37" xmlns="http://www.w3.org/2000/svg"><g fill="none"><path d="M154.787 31.836h21.182v-5.44H160.86V20.55h13.114v-5.441H160.86V9.48h14.92V4.04h-20.994v27.796zm-18.442-13.774V9.574h4.735c3.053 0 4.984 1.461 4.984 4.198v.093c0 2.394-1.775 4.197-4.859 4.197h-4.86zm-6.136 13.774h6.136v-8.333h4.642c6.23 0 11.245-3.326 11.245-9.763v-.093c0-5.69-4.018-9.607-10.653-9.607h-11.37v27.796zm-20.84-11.628l3.707-9.017 3.707 9.017h-7.414zM98.404 31.836h6.23l2.555-6.218h11.775l2.554 6.218h6.386l-11.93-27.983h-5.64l-11.93 27.983zm-11.93.498c5.358 0 8.535-1.897 11.4-4.975l-3.893-3.918c-2.18 1.99-4.143 3.265-7.32 3.265-4.766 0-8.068-3.98-8.068-8.737v-.093c0-4.757 3.364-8.644 8.068-8.644 2.772 0 4.984 1.182 7.102 3.14l3.894-4.477c-2.586-2.55-5.732-4.29-10.965-4.29-8.536 0-14.516 6.467-14.516 14.364v.093c.03 7.96 6.105 14.272 14.298 14.272M59.87 32.24c6.012 0 10.217-3.109 10.217-8.612v-.093c0-4.85-3.177-6.872-8.815-8.333-4.797-1.244-6.012-1.835-6.012-3.638v-.093c0-1.337 1.246-2.426 3.582-2.426s4.766 1.027 7.227 2.737l3.177-4.602c-2.834-2.27-6.292-3.545-10.342-3.545-5.7 0-9.75 3.327-9.75 8.364v.094c0 5.503 3.614 7.058 9.22 8.488 4.642 1.181 5.608 1.99 5.608 3.544v.094c0 1.616-1.526 2.611-4.018 2.611-3.178 0-5.794-1.306-8.318-3.358l-3.582 4.322c3.333 2.985 7.6 4.446 11.806 4.446" fill="#FFF"/><path d="M35.48 11.253c-.934-.622-2.118-1.12-3.488-1.523-.561 3.98-2.586 9.016-5.92 13.898-1.681 2.456-3.488 4.633-5.326 6.436-3.115 3.047-6.292 5.068-8.94 5.628a18.464 18.464 0 0 0 14.049-.249 23.023 23.023 0 0 0 2.305-1.182 16.62 16.62 0 0 0 2.928-2.238c.997-.933 1.9-1.99 2.71-3.172 3.676-5.379 4.08-12.001 1.682-17.598z" fill="#A7A7A9"/><path d="M35.418 11.16c-.125-.249-.218-.529-.343-.778 0-.03-.03-.062-.03-.093-.032-.03-.032-.062-.063-.124a18.536 18.536 0 0 0-2.99-4.229C27.817 1.49 21.556-.81 15.108.402a18.469 18.469 0 0 0-13.8 11.317 29.477 29.477 0 0 0-.53 1.524 18.94 18.94 0 0 0-.747 4.54c.623-.902 1.527-1.773 2.648-2.612 3.208-2.426 8.255-4.509 14.142-5.597 5.857-1.088 11.277-.933 15.17.156 1.371.404 2.555.901 3.49 1.523-.032-.031-.032-.062-.063-.093z" fill="#009ABF"/><path d="M13.364 26.053C8.41 22.695 4.673 18.715 2.679 15.202c-1.121.84-2.025 1.71-2.648 2.612-.218 6.125 2.586 12.219 8.037 15.95a18.45 18.45 0 0 0 3.707 1.959c2.617-.56 5.794-2.55 8.94-5.628-2.399-.995-4.89-2.363-7.351-4.042z" fill="#FFF"/></g></svg>