<svg width="16" height="15" viewBox="0 0 16 15" fill="#A7A8A9" xmlns="http://www.w3.org/2000/svg">
<path fill-rule="evenodd" clip-rule="evenodd" d="M12.1461 10.3154L15.7697 13.7339C16.0768 14.0238 16.0768 14.4924 15.7697 14.7825C15.6161 14.9274 15.4151 15 15.2132 15C15.0122 15 14.8104 14.9274 14.6576 14.7825L11.0463 11.3757C9.88047 12.2665 8.39741 12.8013 6.78388 12.8013C3.04335 12.8013 0 9.93003 0 6.40046C0 2.87089 3.04335 -0.000204994 6.78368 1.09778e-08C10.525 1.09778e-08 13.5684 2.87109 13.5684 6.40046C13.5684 7.87444 13.0367 9.23239 12.1461 10.3154ZM6.78745 1.45161C3.84713 1.45161 1.45455 3.73025 1.45455 6.53152C1.45455 9.33257 3.84713 11.6129 6.78745 11.6129C9.72863 11.6129 12.1212 9.33278 12.1212 6.53152C12.1212 3.73025 9.72863 1.45161 6.78745 1.45161Z" fill="#A7A8A9"/>
</svg>
