<svg width="1530" height="922" viewBox="0 0 1530 922" fill="none" xmlns="http://www.w3.org/2000/svg">
<g clip-path="url(#clip0_411_1250)">
<path fill-rule="evenodd" clip-rule="evenodd" d="M735.713 1092.33C625.711 1045.41 510.388 982.299 396.426 904.033C168.699 747.648 -4.80661 564.514 -95.6255 401.299C-127.258 344.446 -148.963 290.011 -159.248 240C-185.863 306.496 -204.36 376.637 -213.707 449.064C-216.757 473.858 -218.592 498.718 -219.463 523.565C-229.458 806.879 -99.6126 1088.78 151.43 1261.19C205.388 1298.24 262.237 1327.48 320.552 1350.68C327.734 1353.52 334.837 1356.73 342.058 1359.37C348.462 1361.71 354.878 1363.9 361.321 1366.08C376.847 1371.34 392.452 1376.13 408.149 1380.47C416.969 1382.88 425.814 1385.12 434.66 1387.23C448.43 1390.57 462.239 1393.57 476.089 1396.2C486.584 1398.15 497.08 1399.9 507.603 1401.47C520.198 1403.37 532.819 1405.04 545.467 1406.36C556.927 1407.56 568.399 1408.48 579.872 1409.21C591.9 1409.99 603.927 1410.56 615.954 1410.82C627.744 1411.09 639.52 1411.03 651.297 1410.81C663.192 1410.58 675.074 1410.18 686.93 1409.45C698.561 1408.75 710.153 1407.73 721.745 1406.56C733.825 1405.33 745.878 1403.93 757.893 1402.18C769.035 1400.57 780.125 1398.67 791.202 1396.64C803.533 1394.35 815.811 1391.87 828.05 1389.05C838.625 1386.6 849.134 1383.9 859.63 1381.08C872.093 1377.71 884.503 1374.11 896.808 1370.18C906.921 1366.94 916.954 1363.45 926.935 1359.86C939.214 1355.44 951.399 1350.77 963.466 1345.79C973.434 1341.67 983.296 1337.31 993.119 1332.81C1004.67 1327.52 1016.13 1322.02 1027.47 1316.2C1037.72 1310.93 1047.86 1305.41 1057.9 1299.71C1068.19 1293.91 1078.38 1287.91 1088.44 1281.66C1099.42 1274.82 1110.25 1267.69 1120.96 1260.33C1129.41 1254.53 1137.79 1248.6 1146.04 1242.48C1158.21 1233.45 1170.18 1224.04 1181.91 1214.29C1187.99 1209.29 1194.03 1204.2 1200 1198.98C1205.47 1194.18 1210.65 1188.96 1216 1183.99C1093.42 1204.59 922.314 1171.91 735.713 1092.33Z" fill="#EEEEF2"/>
<path opacity="0.3" fill-rule="evenodd" clip-rule="evenodd" d="M1392.18 -27C1425.87 167.75 1324.15 486.412 1112.45 794.773C1034.2 908.742 949.234 1009.09 863.408 1092.41C717.844 1233.74 569.851 1325.76 448 1350.7C455.186 1353.55 462.293 1356.74 469.533 1359.39C475.94 1361.71 482.346 1363.93 488.793 1366.09C504.328 1371.36 519.956 1376.14 535.663 1380.49C544.474 1382.89 553.325 1385.12 562.189 1387.25C575.954 1390.58 589.772 1393.58 603.642 1396.19C614.131 1398.16 624.633 1399.9 635.162 1401.47C647.778 1403.37 660.407 1405.04 673.049 1406.37C684.515 1407.56 695.995 1408.49 707.474 1409.21C719.509 1409.99 731.543 1410.57 743.578 1410.82C755.375 1411.09 767.158 1411.03 778.942 1410.81C790.844 1410.58 802.733 1410.18 814.596 1409.45C826.234 1408.75 837.846 1407.73 849.431 1406.56C861.518 1405.33 873.579 1403.92 885.601 1402.17C896.75 1400.57 907.847 1398.69 918.93 1396.63C931.268 1394.35 943.567 1391.87 955.8 1389.06C966.381 1386.6 976.896 1383.92 987.385 1381.1C999.869 1377.71 1012.29 1374.12 1024.6 1370.19C1034.72 1366.95 1044.76 1363.48 1054.76 1359.87C1067.03 1355.45 1079.22 1350.8 1091.31 1345.82C1101.28 1341.69 1111.14 1337.33 1120.97 1332.83C1132.53 1327.55 1143.99 1322.04 1155.34 1316.23C1165.59 1310.96 1175.74 1305.44 1185.79 1299.73C1196.09 1293.94 1206.28 1287.94 1216.34 1281.69C1227.33 1274.87 1238.17 1267.73 1248.88 1260.37C1257.34 1254.57 1265.71 1248.65 1273.98 1242.52C1286.16 1233.49 1298.13 1224.09 1309.89 1214.36C1315.96 1209.34 1322 1204.25 1327.96 1199.02C1333.44 1194.23 1338.63 1189.03 1343.99 1184.06C1390.06 1141.49 1432.58 1093.78 1469.61 1039.84C1700.81 703.11 1658.01 260.932 1392.18 -27Z" fill="#DFDFE3"/>
</g>
<defs>
<clipPath id="clip0_411_1250">
<rect width="1530" height="922" fill="white"/>
</clipPath>
</defs>
</svg>
