<svg width="32" height="33" viewBox="0 0 32 33" fill="none" xmlns="http://www.w3.org/2000/svg">
<mask id="mask0_405_1256" style="mask-type:luminance" maskUnits="userSpaceOnUse" x="0" y="10" width="27" height="23">
<path fill-rule="evenodd" clip-rule="evenodd" d="M0 10.4966H26.7738V33H0V10.4966Z" fill="white"/>
</mask>
<g mask="url(#mask0_405_1256)">
<path fill-rule="evenodd" clip-rule="evenodd" d="M17.819 26.8761C15.768 25.9744 13.6179 24.7615 11.4931 23.2575C7.24717 20.2522 4.01222 16.7329 2.31893 13.5964C1.72914 12.5038 1.32447 11.4577 1.13271 10.4966C0.636465 11.7745 0.291604 13.1224 0.117327 14.5143C0.0604655 14.9907 0.0262501 15.4685 0.010004 15.946C-0.176334 21.3905 2.24459 26.8078 6.9252 30.121C7.93123 30.833 8.99117 31.395 10.0784 31.8408C10.2123 31.8954 10.3448 31.9571 10.4794 32.0078C10.5988 32.0528 10.7184 32.0949 10.8386 32.1368C11.128 32.2378 11.419 32.33 11.7117 32.4132C11.8761 32.4597 12.041 32.5026 12.2059 32.5432C12.4627 32.6074 12.7202 32.665 12.9784 32.7155C13.1741 32.7531 13.3698 32.7866 13.5659 32.8168C13.8008 32.8534 14.0361 32.8854 14.2719 32.9108C14.4856 32.9339 14.6995 32.9516 14.9134 32.9656C15.1376 32.9806 15.3619 32.9915 15.5861 32.9966C15.8059 33.0016 16.0255 33.0006 16.2451 32.9963C16.4669 32.992 16.6884 32.9841 16.9095 32.9702C17.1263 32.9567 17.3424 32.9372 17.5586 32.9146C17.7838 32.891 18.0085 32.864 18.2325 32.8305C18.4403 32.7996 18.6471 32.763 18.8536 32.7239C19.0835 32.68 19.3124 32.6323 19.5406 32.5782C19.7378 32.531 19.9337 32.4792 20.1294 32.4249C20.3618 32.3602 20.5931 32.2911 20.8226 32.2155C21.0111 32.1533 21.1982 32.0863 21.3843 32.0172C21.6132 31.9322 21.8404 31.8426 22.0654 31.7469C22.2512 31.6677 22.4351 31.5839 22.6182 31.4973C22.8336 31.3958 23.0473 31.2899 23.2587 31.1783C23.4498 31.077 23.6388 30.9709 23.8261 30.8612C24.0179 30.7498 24.2079 30.6345 24.3955 30.5144C24.6003 30.383 24.8021 30.2459 25.0018 30.1045C25.1593 29.993 25.3156 29.8791 25.4694 29.7615C25.6964 29.5879 25.9194 29.4072 26.1382 29.2198C26.2515 29.1236 26.3642 29.0259 26.4755 28.9256C26.5774 28.8332 26.6741 28.733 26.7738 28.6375C24.4883 29.0333 21.2981 28.4052 17.819 26.8761Z" fill="#221C35"/>
</g>
<path fill-rule="evenodd" clip-rule="evenodd" d="M27.6717 5.35876C28.2994 9.10223 26.404 15.2275 22.4592 21.1548C21.0012 23.3455 19.4179 25.2745 17.8187 26.876C15.1063 29.5927 12.3486 31.3615 10.0781 31.8408C10.212 31.8956 10.3445 31.957 10.4794 32.0078C10.5987 32.0525 10.7181 32.0951 10.8382 32.1367C11.1277 32.238 11.4189 32.3299 11.7116 32.4134C11.8758 32.4596 12.0407 32.5025 12.2059 32.5434C12.4624 32.6074 12.7198 32.665 12.9783 32.7153C13.1738 32.7531 13.3694 32.7866 13.5656 32.8168C13.8007 32.8533 14.036 32.8853 14.2716 32.911C14.4853 32.9338 14.6992 32.9516 14.9131 32.9655C15.1373 32.9805 15.3616 32.9917 15.5858 32.9965C15.8056 33.0016 16.0252 33.0006 16.2448 32.9963C16.4666 32.9919 16.6881 32.9841 16.9091 32.9701C17.126 32.9567 17.3424 32.9371 17.5582 32.9145C17.7835 32.8909 18.0082 32.8638 18.2322 32.8302C18.44 32.7995 18.6467 32.7632 18.8533 32.7236C19.0832 32.68 19.3123 32.6322 19.5403 32.5782C19.7374 32.531 19.9334 32.4794 20.1288 32.4251C20.3614 32.3601 20.5928 32.2911 20.8222 32.2154C21.0108 32.1532 21.1979 32.0865 21.3842 32.0172C21.6129 31.9321 21.8401 31.8428 22.0653 31.7471C22.2512 31.6676 22.4348 31.5839 22.6179 31.4973C22.8333 31.3958 23.047 31.2899 23.2584 31.1782C23.4494 31.0769 23.6385 30.9708 23.8258 30.8612C24.0178 30.7497 24.2076 30.6345 24.3952 30.5144C24.6 30.3832 24.8018 30.2461 25.0014 30.1044C25.159 29.993 25.315 29.8793 25.4691 29.7615C25.6961 29.5879 25.9191 29.4071 26.1382 29.22C26.2514 29.1236 26.3639 29.0259 26.4749 28.9253C26.5771 28.8332 26.6738 28.7332 26.7738 28.6377C27.6321 27.8193 28.4245 26.9024 29.1144 25.8655C33.4226 19.3929 32.6251 10.8934 27.6717 5.35876Z" fill="#A7A8A9"/>
<mask id="mask1_405_1256" style="mask-type:luminance" maskUnits="userSpaceOnUse" x="0" y="0" width="31" height="16">
<path fill-rule="evenodd" clip-rule="evenodd" d="M0.00976562 0.130737H30.6281V15.946H0.00976562V0.130737Z" fill="white"/>
</mask>
<g mask="url(#mask1_405_1256)">
<path fill-rule="evenodd" clip-rule="evenodd" d="M13.0372 0.41136C7.4478 1.48335 3.09949 5.43218 1.13272 10.4964C0.636227 11.7743 0.291366 13.1225 0.117089 14.514C0.0602272 14.9908 0.0262579 15.4685 0.00976562 15.946C0.562135 15.1433 1.34613 14.3521 2.31869 13.5961C5.09973 11.4344 9.44484 9.56759 14.5134 8.59536C21.3668 7.28069 27.5647 7.97851 30.6281 10.0885C27.7316 3.17473 20.5213 -1.02414 13.0372 0.41136Z" fill="#29BCEE"/>
</g>
</svg>
