<svg width="14" height="13" viewBox="0 0 14 13" fill="#000000" xmlns="http://www.w3.org/2000/svg">
<path d="M7.48322 0.546521L7.48317 0.546572L7.48929 0.552569L13.4505 6.39617L13.4505 6.39623L13.4571 6.40254C13.514 6.4563 13.5147 6.54356 13.4567 6.59844L13.4567 6.59839L13.4505 6.6044L7.48931 12.4474L7.48925 12.4474L7.48281 12.4539C7.42587 12.5118 7.31387 12.5211 7.23869 12.4474L7.23827 12.447C7.18602 12.3959 7.1763 12.2956 7.24262 12.226L12.0585 7.51439L12.9349 6.65699H11.7088H0.665487C0.570725 6.65699 0.5 6.58246 0.5 6.4953C0.5 6.4176 0.561305 6.3427 0.666051 6.34243C0.666127 6.34243 0.666203 6.34243 0.666279 6.34243L11.7088 6.34243H12.9332L12.0588 5.48535L7.23869 0.760799L7.23827 0.760391C7.1821 0.705459 7.18149 0.60865 7.23869 0.552587C7.31363 0.479128 7.42537 0.487836 7.48322 0.546521Z" fill="#009CBD" stroke="#000000"/>
</svg>
