<svg width="176" height="37" viewBox="0 0 176 37" fill="none" xmlns="http://www.w3.org/2000/svg">
<mask id="mask0_2671_1086" style="mask-type:luminance" maskUnits="userSpaceOnUse" x="0" y="11" width="32" height="26">
<path fill-rule="evenodd" clip-rule="evenodd" d="M0 11.6455H31.0763V36.9263H0V11.6455Z" fill="white"/>
</mask>
<g mask="url(#mask0_2671_1086)">
<path fill-rule="evenodd" clip-rule="evenodd" d="M20.6827 30.0466C18.3025 29.0343 15.8064 27.6709 13.3396 25.9813C8.41226 22.6053 4.65738 18.6522 2.69148 15.1282C2.00741 13.9003 1.53766 12.7257 1.31494 11.6455C0.738966 13.0814 0.338683 14.5952 0.136517 16.1589C0.0701661 16.694 0.0312281 17.2313 0.0116033 17.7676C-0.204581 23.8841 2.60488 29.9701 8.03751 33.6925C9.20566 34.4925 10.4364 35.1237 11.6983 35.624C11.8534 35.6856 12.0073 35.7549 12.1637 35.8115C12.3023 35.8619 12.4413 35.9094 12.5808 35.9573C12.9166 36.0708 13.254 36.174 13.5941 36.2676C13.7848 36.3195 13.9757 36.368 14.1673 36.4141C14.4654 36.4853 14.7648 36.5505 15.0644 36.6071C15.2912 36.6494 15.5183 36.6864 15.7463 36.7206C16.0186 36.7623 16.2914 36.7974 16.5656 36.8266C16.8138 36.8521 17.0618 36.8724 17.3104 36.8885C17.5699 36.9044 17.8306 36.9174 18.0913 36.9227C18.3458 36.928 18.6009 36.9271 18.8558 36.9227C19.1134 36.9174 19.3707 36.9087 19.6267 36.8929C19.8787 36.878 20.1298 36.8556 20.3806 36.831C20.6422 36.8046 20.9026 36.7738 21.1624 36.7359C21.4035 36.7013 21.6437 36.6606 21.8833 36.6168C22.1502 36.5676 22.4162 36.5135 22.6813 36.4529C22.91 36.4001 23.1371 36.3416 23.3642 36.2807C23.6336 36.2073 23.9021 36.1299 24.1691 36.0453C24.3874 35.9756 24.6046 35.9007 24.8214 35.8221C25.0862 35.7269 25.3503 35.6262 25.612 35.5189C25.8275 35.4297 26.0406 35.3355 26.2534 35.2381C26.5035 35.1246 26.7505 35.0056 26.9963 34.8803C27.2181 34.7668 27.4374 34.6464 27.6554 34.5239C27.8782 34.399 28.0981 34.2693 28.3165 34.134C28.5541 33.987 28.7881 33.8328 29.0195 33.6739C29.2027 33.5489 29.3837 33.4208 29.5631 33.2886C29.8263 33.0937 30.0852 32.8907 30.3391 32.6802C30.4705 32.5716 30.6013 32.4616 30.73 32.349C30.8484 32.2452 30.9608 32.1332 31.0764 32.0257C28.4242 32.47 24.7214 31.7645 20.6827 30.0466Z" fill="white"/>
</g>
<mask id="mask1_2671_1086" style="mask-type:luminance" maskUnits="userSpaceOnUse" x="11" y="5" width="27" height="32">
<path fill-rule="evenodd" clip-rule="evenodd" d="M11.6992 5.86597H37.0558V36.9265H11.6992V5.86597Z" fill="white"/>
</mask>
<g mask="url(#mask1_2671_1086)">
<path fill-rule="evenodd" clip-rule="evenodd" d="M32.0535 5.86597C32.7815 10.0718 30.649 16.9607 26.0695 23.6197C24.3778 26.081 22.5399 28.2479 20.6836 30.0469C17.5349 33.0989 14.3345 35.086 11.6992 35.6239C11.8547 35.6858 12.0082 35.7542 12.1646 35.8117C12.3035 35.8618 12.4418 35.9093 12.5817 35.9563C12.9175 36.0701 13.2549 36.1743 13.5953 36.2675C13.786 36.3198 13.9769 36.3683 14.1685 36.4143C14.4663 36.4855 14.7657 36.5499 15.0653 36.6074C15.2924 36.6493 15.5195 36.6867 15.7472 36.7209C16.0195 36.7616 16.2924 36.7977 16.5665 36.8269C16.8147 36.8524 17.063 36.8717 17.3113 36.8875C17.5711 36.9043 17.8318 36.9167 18.0922 36.923C18.347 36.9282 18.6022 36.9273 18.8567 36.923C19.1146 36.9177 19.3706 36.9087 19.6279 36.8931C19.8796 36.8779 20.1307 36.8558 20.3815 36.8312C20.6431 36.8039 20.9039 36.7737 21.1637 36.7361C21.4048 36.7013 21.6449 36.6602 21.8842 36.6158C22.1511 36.5676 22.4172 36.5138 22.6822 36.4528C22.9112 36.4 23.138 36.3418 23.3651 36.2809C23.6345 36.2075 23.9033 36.1298 24.17 36.0455C24.3884 35.9756 24.6058 35.8997 24.8223 35.8223C25.0871 35.7271 25.3512 35.6264 25.6129 35.5188C25.8284 35.4299 26.0412 35.3354 26.2543 35.2384C26.5044 35.1246 26.7517 35.0055 26.9975 34.8796C27.219 34.7658 27.4383 34.6467 27.6563 34.5239C27.8791 34.3989 28.0993 34.2692 28.3174 34.1343C28.555 33.9872 28.7893 33.833 29.0207 33.6741C29.2036 33.5488 29.3846 33.421 29.5631 33.2886C29.8275 33.093 30.0861 32.8903 30.3396 32.6801C30.4714 32.5716 30.6022 32.4615 30.7312 32.3493C30.8496 32.2451 30.9617 32.1335 31.0776 32.0259C32.0741 31.1059 32.994 30.0761 33.7942 28.912C38.7951 21.6398 37.9133 12.0947 32.0535 5.86597Z" fill="#A6A7A8"/>
</g>
<path fill-rule="evenodd" clip-rule="evenodd" d="M15.1325 0.31557C8.64444 1.52009 3.59807 5.95605 1.31505 11.646C0.73877 13.0806 0.338798 14.5957 0.136321 16.1597C0.0699701 16.6948 0.030409 17.2308 0.0117188 17.7678C0.652172 16.8658 1.56239 15.9768 2.69159 15.1277C5.91878 12.6988 10.9633 10.6019 16.8457 9.50992C24.8009 8.03271 31.9945 8.81686 35.5497 11.1874C32.1879 3.41984 23.8194 -1.29719 15.1325 0.31557Z" fill="#29BCEE"/>
<path fill-rule="evenodd" clip-rule="evenodd" d="M59.9042 32.1442C65.9078 32.1442 70.1222 29.049 70.1222 23.5329V23.4536C70.1222 18.6119 66.9414 16.5878 61.2957 15.1196C56.4848 13.8896 55.2921 13.2941 55.2921 11.4687V11.3894C55.2921 10.04 56.5247 8.96825 58.8706 8.96825C61.2163 8.96825 63.6416 10.0002 66.1066 11.7069L69.2874 7.10333C66.4645 4.84136 63.0056 3.57123 58.9501 3.57123C53.2645 3.57123 49.2093 6.90496 49.2093 11.9447V12.0243C49.2093 17.5401 52.8271 19.0882 58.4333 20.5169C63.085 21.7071 64.0391 22.5009 64.0391 24.0487V24.128C64.0391 25.7551 62.5283 26.7472 60.0235 26.7472C56.8427 26.7472 54.2186 25.4376 51.7141 23.374L48.0957 27.6996C51.4357 30.6761 55.6899 32.1442 59.9042 32.1442ZM86.5039 32.2238C91.8711 32.2238 95.0519 30.3188 97.9146 27.263L94.018 23.3342C91.8313 25.3185 89.8831 26.5883 86.7027 26.5883C81.9313 26.5883 78.6316 22.62 78.6316 17.8579V17.7786C78.6316 13.0162 82.0111 9.12714 86.7027 9.12714C89.4856 9.12714 91.6721 10.3177 93.8193 12.2625L97.7159 7.77804C95.1313 5.23809 91.9904 3.49194 86.7422 3.49194C78.1942 3.49194 72.2305 9.96041 72.2305 17.8579V17.9372C72.2305 25.9139 78.3135 32.2238 86.5039 32.2238ZM98.4297 31.7475H104.672L107.216 25.5172H118.985L121.529 31.7475H127.931L116.003 3.7696H110.357L98.4297 31.7475ZM109.402 20.1199L113.1 11.1115L116.798 20.1199H109.402ZM130.236 31.7475H136.359V23.4138H141.011C147.253 23.4138 152.263 20.0801 152.263 13.6511V13.5718C152.263 7.89712 148.248 3.96797 141.607 3.96797H130.236V31.7475ZM136.36 17.977V9.48439H141.091C144.152 9.48439 146.061 10.9526 146.061 13.6909V13.7702C146.061 16.1512 144.272 17.977 141.21 17.977H136.36ZM154.809 31.7475H176V26.3107H160.891V20.4771H174.012V15.0403H160.891V9.4051H175.801V3.96797H154.809V31.7475Z" fill="white"/>
</svg>
