<svg width="50" height="50" viewBox="0 0 50 50" fill="none" xmlns="http://www.w3.org/2000/svg">
<circle cx="25" cy="25" r="24.5" stroke="white"/>
<path d="M37 19.1309C36.2274 19.4927 35.397 19.7364 34.5255 19.8462C35.4154 19.2841 36.0987 18.3936 36.4199 17.3322C35.5877 17.8527 34.6655 18.2311 33.6838 18.4351C32.8989 17.5519 31.778 17 30.539 17C27.7574 17 25.7134 19.7373 26.3416 22.5789C22.762 22.3897 19.5875 20.5808 17.4621 17.8315C16.3334 19.8739 16.8767 22.5456 18.7947 23.8986C18.0895 23.8746 17.4245 23.6706 16.8444 23.3301C16.7971 25.4352 18.2277 27.4046 20.2997 27.843C19.6934 28.0165 19.0292 28.0571 18.3537 27.9205C18.9015 29.7257 20.4922 31.039 22.3787 31.0759C20.5675 32.5737 18.2855 33.2428 16 32.9586C17.9066 34.2478 20.172 35 22.6045 35C30.6038 35 35.1231 27.8744 34.8501 21.4834C35.6919 20.842 36.4225 20.0418 37 19.1309Z" fill="white"/>
</svg>
