<svg width="50" height="50" viewBox="0 0 50 50" fill="none" xmlns="http://www.w3.org/2000/svg">
<circle cx="25" cy="25" r="24.5" stroke="white"/>
<path fill-rule="evenodd" clip-rule="evenodd" d="M33.4859 17.4777C34.4755 17.7405 35.2549 18.515 35.5194 19.4985C36 21.2809 36 25 36 25C36 25 36 28.719 35.5194 30.5015C35.2549 31.485 34.4755 32.2595 33.4859 32.5225C31.6923 33 24.5 33 24.5 33C24.5 33 17.3077 33 15.5141 32.5225C14.5245 32.2595 13.7451 31.485 13.4806 30.5015C13 28.719 13 25 13 25C13 25 13 21.2809 13.4806 19.4985C13.7451 18.515 14.5245 17.7405 15.5141 17.4777C17.3077 17 24.5 17 24.5 17C24.5 17 31.6923 17 33.4859 17.4777ZM28 25.0002L22 21V29L28 25.0002Z" fill="white"/>
</svg>
